<svg xmlns="http://www.w3.org/2000/svg" xmlns:xlink="http://www.w3.org/1999/xlink" width="820" height="494.2"><rect width="820" height="494.2" rx="5" ry="5" class="a"/><svg y="0%" x="0%"><circle cx="20" cy="20" r="6" fill="#ff5f58"/><circle cx="40" cy="20" r="6" fill="#ffbd2e"/><circle cx="60" cy="20" r="6" fill="#18c132"/></svg><svg height="434.2" viewBox="0 0 78 43.42" width="780" x="15" xmlns="http://www.w3.org/2000/svg" xmlns:xlink="http://www.w3.org/1999/xlink" y="50"><style>@keyframes p{0%{transform:translateX(0)}4.7%{transform:translateX(-156px)}5.7%{transform:translateX(-390px)}30.7%{transform:translateX(-624px)}30.8%{transform:translateX(-1170px)}30.9%{transform:translateX(-1716px)}31%{transform:translateX(-2262px)}31.1%{transform:translateX(-2886px)}31.2%{transform:translateX(-3432px)}31.3%{transform:translateX(-3978px)}31.4%{transform:translateX(-4524px)}31.5%{transform:translateX(-4992px)}31.6%{transform:translateX(-5460px)}31.7%{transform:translateX(-6006px)}31.8%{transform:translateX(-6396px)}31.9%{transform:translateX(-6786px)}32%{transform:translateX(-7254px)}32.1%{transform:translateX(-7644px)}32.2%{transform:translateX(-8034px)}32.3%{transform:translateX(-8424px)}32.4%{transform:translateX(-8580px)}41.4%{transform:translateX(-8736px)}47.8%{transform:translateX(-8970px)}49%{transform:translateX(-9126px)}49.5%{transform:translateX(-9360px)}50%{transform:translateX(-9750px)}50.5%{transform:translateX(-9906px)}51.1%{transform:translateX(-10062px)}51.6%{transform:translateX(-10218px)}52.1%{transform:translateX(-10374px)}52.6%{transform:translateX(-10530px)}53.2%{transform:translateX(-10686px)}53.7%{transform:translateX(-10842px)}53.9%{transform:translateX(-11232px)}54%{transform:translateX(-11388px)}54.9%{transform:translateX(-11622px)}to{transform:translateX(-11700px)}}.a{fill:#282d35}.g{font-weight:700}.g,.h,.i{fill:#a8cc8c;white-space:pre}.i{fill:#b9c0cb}.j{fill:#dbab79}.j,.k,.l,.r{white-space:pre}.k{font-weight:700;fill:#b9c0cb}.l,.r{fill:#66c2cd}.r{fill:#e88388;font-weight:700}.s{fill:#b9c0cb}.t{fill:#282d35;white-space:pre}</style><g font-family="Monaco,Consolas,Menlo,'Bitstream Vera Sans Mono','Powerline Symbols',monospace" font-size="1.67"><defs><symbol id="1"><text y="1.67" style="white-space:pre" fill="#66c2cd" font-weight="700">~/code</text></symbol><symbol id="2"><text y="1.67" class="g">🍕</text></symbol><symbol id="3"><text y="1.67" class="g">🍕</text><text x="3.006" y="1.67" class="h">storeden-deploy</text><text x="19.038" y="1.67" class="i">\</text></symbol><symbol id="4"><text y="1.67" class="i">-</text></symbol><symbol id="5"><text y="1.67" class="i">--</text></symbol><symbol id="6"><text y="1.67" class="i">--a</text></symbol><symbol id="7"><text y="1.67" class="i">--ap</text></symbol><symbol id="8"><text y="1.67" class="i">--api</text></symbol><symbol id="9"><text y="1.67" class="i">--apiKey</text><text x="9.018" y="1.67" class="j">&apos;d27f134FAKE8376f&apos;</text><text x="28.056" y="1.67" class="i">\</text></symbol><symbol id="10"><text y="1.67" class="i">--apiExchange</text><text x="14.028" y="1.67" class="j">&apos;83cc5fb8FAKEdd9b&apos;</text><text x="33.066" y="1.67" class="i">\</text></symbol><symbol id="11"><text y="1.67" class="i">--sourcePath</text><text x="13.026" y="1.67" class="j">&apos;./storeden/dist&apos;</text></symbol><symbol id="12"><text y="1.67" class="h">✔</text><text x="2.004" y="1.67" class="i">Creating</text><text x="11.022" y="1.67" class="i">zip</text><text x="15.03" y="1.67" class="i">archive</text><text x="23.046" y="1.67" class="i">of</text><text x="26.052" y="1.67" class="k">/Users/cesconix/code/storeden/dist</text></symbol><symbol id="13"><text y="1.67" class="h">✔</text><text x="2.004" y="1.67" class="i">Uploading</text><text x="12.024" y="1.67" class="k">/var/folders/ff/yv7pnmkx4j7d080hry24g60r0000gn/T/storeden.zip</text></symbol><symbol id="14"><text y="1.67" class="l">Success!</text><text x="9.018" y="1.67" class="i">Deployment</text><text x="20.04" y="1.67" class="i">ready</text><text x="26.052" y="1.67" style="white-space:pre" fill="#6f7783">[0.8s]</text></symbol><symbol id="a"><path fill="transparent" d="M0 0h78v20H0z"/></symbol><symbol id="b"><path fill="#6f7683" d="M0 0h1.102v2.171H0z"/></symbol></defs><path class="a" d="M0 0h78v43.42H0z"/><g style="animation-duration:15.590378s;animation-iteration-count:infinite;animation-name:p;animation-timing-function:steps(1,end)"><svg width="11778"><svg><use xlink:href="#a"/><use xlink:href="#b" x="-.004"/></svg><svg x="78"><use xlink:href="#a"/><use xlink:href="#b" x="-.004"/></svg><svg x="156"><use xlink:href="#a"/><use xlink:href="#b" x="-.004"/></svg><svg x="234"><use xlink:href="#a"/><use xlink:href="#b" x="2.996" y="4.317"/><use xlink:href="#1" y="2.171"/><use xlink:href="#2" y="4.342"/></svg><svg x="312"><use xlink:href="#a"/><use xlink:href="#b" x="2.996" y="4.317"/><use xlink:href="#1" y="2.171"/><use xlink:href="#2" y="4.342"/></svg><svg x="390"><use xlink:href="#a"/><use xlink:href="#b" x="2.996" y="4.317"/><use xlink:href="#1" y="2.171"/><use xlink:href="#2" y="4.342"/></svg><svg x="468"><use xlink:href="#a"/><use xlink:href="#b" x="3.996" y="4.317"/><use xlink:href="#1" y="2.171"/><text y="6.012" class="g">🍕</text><text x="3.006" y="6.012" class="r">s</text></svg><svg x="546"><use xlink:href="#a"/><use xlink:href="#b" x="4.996" y="4.317"/><use xlink:href="#1" y="2.171"/><text y="6.012" class="g">🍕</text><text x="3.006" y="6.012" class="r">st</text></svg><svg x="624"><use xlink:href="#a"/><use xlink:href="#b" x="5.996" y="4.317"/><use xlink:href="#1" y="2.171"/><text y="6.012" class="g">🍕</text><text x="3.006" y="6.012" class="r">sto</text></svg><svg x="702"><use xlink:href="#a"/><use xlink:href="#b" x="6.996" y="4.317"/><use xlink:href="#1" y="2.171"/><text y="6.012" class="g">🍕</text><text x="3.006" y="6.012" class="r">stor</text></svg><svg x="780"><use xlink:href="#a"/><use xlink:href="#b" x="7.996" y="4.317"/><use xlink:href="#1" y="2.171"/><text y="6.012" class="g">🍕</text><text x="3.006" y="6.012" class="r">store</text></svg><svg x="858"><use xlink:href="#a"/><use xlink:href="#b" x="8.996" y="4.317"/><use xlink:href="#1" y="2.171"/><text y="6.012" class="g">🍕</text><text x="3.006" y="6.012" class="r">stored</text></svg><svg x="936"><use xlink:href="#a"/><use xlink:href="#b" x="9.996" y="4.317"/><use xlink:href="#1" y="2.171"/><text y="6.012" class="g">🍕</text><text x="3.006" y="6.012" class="r">storede</text></svg><svg x="1014"><use xlink:href="#a"/><use xlink:href="#b" x="10.996" y="4.317"/><use xlink:href="#1" y="2.171"/><text y="6.012" class="g">🍕</text><text x="3.006" y="6.012" class="r">storeden</text></svg><svg x="1092"><use xlink:href="#a"/><use xlink:href="#b" x="11.996" y="4.317"/><use xlink:href="#1" y="2.171"/><text y="6.012" class="g">🍕</text><text x="3.006" y="6.012" class="r">storeden-</text></svg><svg x="1170"><use xlink:href="#a"/><use xlink:href="#b" x="12.996" y="4.317"/><use xlink:href="#1" y="2.171"/><text y="6.012" class="g">🍕</text><text x="3.006" y="6.012" class="r">storeden-d</text></svg><svg x="1248"><use xlink:href="#a"/><use xlink:href="#b" x="13.996" y="4.317"/><use xlink:href="#1" y="2.171"/><text y="6.012" class="g">🍕</text><text x="3.006" y="6.012" class="r">storeden-de</text></svg><svg x="1326"><use xlink:href="#a"/><use xlink:href="#b" x="14.996" y="4.317"/><use xlink:href="#1" y="2.171"/><text y="6.012" class="g">🍕</text><text x="3.006" y="6.012" class="r">storeden-dep</text></svg><svg x="1404"><use xlink:href="#a"/><use xlink:href="#b" x="15.996" y="4.317"/><use xlink:href="#1" y="2.171"/><text y="6.012" class="g">🍕</text><text x="3.006" y="6.012" class="r">storeden-depl</text></svg><svg x="1482"><use xlink:href="#a"/><use xlink:href="#b" x="16.996" y="4.317"/><use xlink:href="#1" y="2.171"/><text y="6.012" class="g">🍕</text><text x="3.006" y="6.012" class="r">storeden-deplo</text></svg><svg x="1560"><use xlink:href="#a"/><use xlink:href="#b" x="17.996" y="4.317"/><use xlink:href="#1" y="2.171"/><text y="6.012" class="g">🍕</text><text x="3.006" y="6.012" class="h">storeden-deploy</text></svg><svg x="1638"><use xlink:href="#a"/><use xlink:href="#b" x="19.996" y="4.317"/><use xlink:href="#1" y="2.171"/><use xlink:href="#3" y="4.342"/></svg><svg x="1716"><use xlink:href="#a"/><use xlink:href="#b" x=".996" y="6.488"/><use xlink:href="#1" y="2.171"/><use xlink:href="#3" y="4.342"/><use xlink:href="#4" y="6.513"/></svg><svg x="1794"><use xlink:href="#a"/><use xlink:href="#b" x="1.996" y="6.488"/><use xlink:href="#1" y="2.171"/><use xlink:href="#3" y="4.342"/><use xlink:href="#5" y="6.513"/></svg><svg x="1872"><use xlink:href="#a"/><use xlink:href="#b" x="2.996" y="6.488"/><use xlink:href="#1" y="2.171"/><use xlink:href="#3" y="4.342"/><use xlink:href="#6" y="6.513"/></svg><svg x="1950"><use xlink:href="#a"/><use xlink:href="#b" x="3.996" y="6.488"/><use xlink:href="#1" y="2.171"/><use xlink:href="#3" y="4.342"/><use xlink:href="#7" y="6.513"/></svg><svg x="2028"><use xlink:href="#a"/><use xlink:href="#b" x="4.996" y="6.488"/><use xlink:href="#1" y="2.171"/><use xlink:href="#3" y="4.342"/><use xlink:href="#8" y="6.513"/></svg><svg x="2106"><use xlink:href="#a"/><use xlink:href="#b" x="5.996" y="6.488"/><use xlink:href="#1" y="2.171"/><use xlink:href="#3" y="4.342"/><text y="8.183" class="i">--apiK</text></svg><svg x="2184"><use xlink:href="#a"/><use xlink:href="#b" x="6.996" y="6.488"/><use xlink:href="#1" y="2.171"/><use xlink:href="#3" y="4.342"/><text y="8.183" class="i">--apiKe</text></svg><svg x="2262"><use xlink:href="#a"/><use xlink:href="#b" x="7.996" y="6.488"/><use xlink:href="#1" y="2.171"/><use xlink:href="#3" y="4.342"/><text y="8.183" class="i">--apiKey</text></svg><svg x="2340"><use xlink:href="#a"/><use xlink:href="#b" x="9.996" y="6.488"/><use xlink:href="#1" y="2.171"/><use xlink:href="#3" y="4.342"/><text y="8.183" class="i">--apiKey</text><text x="9.018" y="8.183" class="j">&apos;</text></svg><svg x="2418"><use xlink:href="#a"/><use xlink:href="#b" x="10.996" y="6.488"/><use xlink:href="#1" y="2.171"/><use xlink:href="#3" y="4.342"/><text y="8.183" class="i">--apiKey</text><text x="9.018" y="8.183" class="j">&apos;d</text></svg><svg x="2496"><use xlink:href="#a"/><use xlink:href="#b" x="11.996" y="6.488"/><use xlink:href="#1" y="2.171"/><use xlink:href="#3" y="4.342"/><text y="8.183" class="i">--apiKey</text><text x="9.018" y="8.183" class="j">&apos;d2</text></svg><svg x="2574"><use xlink:href="#a"/><use xlink:href="#b" x="12.996" y="6.488"/><use xlink:href="#1" y="2.171"/><use xlink:href="#3" y="4.342"/><text y="8.183" class="i">--apiKey</text><text x="9.018" y="8.183" class="j">&apos;d27</text></svg><svg x="2652"><use xlink:href="#a"/><use xlink:href="#b" x="13.996" y="6.488"/><use xlink:href="#1" y="2.171"/><use xlink:href="#3" y="4.342"/><text y="8.183" class="i">--apiKey</text><text x="9.018" y="8.183" class="j">&apos;d27f</text></svg><svg x="2730"><use xlink:href="#a"/><use xlink:href="#b" x="14.996" y="6.488"/><use xlink:href="#1" y="2.171"/><use xlink:href="#3" y="4.342"/><text y="8.183" class="i">--apiKey</text><text x="9.018" y="8.183" class="j">&apos;d27f1</text></svg><svg x="2808"><use xlink:href="#a"/><use xlink:href="#b" x="15.996" y="6.488"/><use xlink:href="#1" y="2.171"/><use xlink:href="#3" y="4.342"/><text y="8.183" class="i">--apiKey</text><text x="9.018" y="8.183" class="j">&apos;d27f13</text></svg><svg x="2886"><use xlink:href="#a"/><use xlink:href="#b" x="16.996" y="6.488"/><use xlink:href="#1" y="2.171"/><use xlink:href="#3" y="4.342"/><text y="8.183" class="i">--apiKey</text><text x="9.018" y="8.183" class="j">&apos;d27f134</text></svg><svg x="2964"><use xlink:href="#a"/><use xlink:href="#b" x="17.996" y="6.488"/><use xlink:href="#1" y="2.171"/><use xlink:href="#3" y="4.342"/><text y="8.183" class="i">--apiKey</text><text x="9.018" y="8.183" class="j">&apos;d27f134F</text></svg><svg x="3042"><use xlink:href="#a"/><use xlink:href="#b" x="18.996" y="6.488"/><use xlink:href="#1" y="2.171"/><use xlink:href="#3" y="4.342"/><text y="8.183" class="i">--apiKey</text><text x="9.018" y="8.183" class="j">&apos;d27f134FA</text></svg><svg x="3120"><use xlink:href="#a"/><use xlink:href="#b" x="19.996" y="6.488"/><use xlink:href="#1" y="2.171"/><use xlink:href="#3" y="4.342"/><text y="8.183" class="i">--apiKey</text><text x="9.018" y="8.183" class="j">&apos;d27f134FAK</text></svg><svg x="3198"><use xlink:href="#a"/><use xlink:href="#b" x="20.996" y="6.488"/><use xlink:href="#1" y="2.171"/><use xlink:href="#3" y="4.342"/><text y="8.183" class="i">--apiKey</text><text x="9.018" y="8.183" class="j">&apos;d27f134FAKE</text></svg><svg x="3276"><use xlink:href="#a"/><use xlink:href="#b" x="21.996" y="6.488"/><use xlink:href="#1" y="2.171"/><use xlink:href="#3" y="4.342"/><text y="8.183" class="i">--apiKey</text><text x="9.018" y="8.183" class="j">&apos;d27f134FAKE8</text></svg><svg x="3354"><use xlink:href="#a"/><use xlink:href="#b" x="22.996" y="6.488"/><use xlink:href="#1" y="2.171"/><use xlink:href="#3" y="4.342"/><text y="8.183" class="i">--apiKey</text><text x="9.018" y="8.183" class="j">&apos;d27f134FAKE83</text></svg><svg x="3432"><use xlink:href="#a"/><use xlink:href="#b" x="23.996" y="6.488"/><use xlink:href="#1" y="2.171"/><use xlink:href="#3" y="4.342"/><text y="8.183" class="i">--apiKey</text><text x="9.018" y="8.183" class="j">&apos;d27f134FAKE837</text></svg><svg x="3510"><use xlink:href="#a"/><use xlink:href="#b" x="24.996" y="6.488"/><use xlink:href="#1" y="2.171"/><use xlink:href="#3" y="4.342"/><text y="8.183" class="i">--apiKey</text><text x="9.018" y="8.183" class="j">&apos;d27f134FAKE8376</text></svg><svg x="3588"><use xlink:href="#a"/><use xlink:href="#b" x="25.996" y="6.488"/><use xlink:href="#1" y="2.171"/><use xlink:href="#3" y="4.342"/><text y="8.183" class="i">--apiKey</text><text x="9.018" y="8.183" class="j">&apos;d27f134FAKE8376f</text></svg><svg x="3666"><use xlink:href="#a"/><use xlink:href="#b" x="26.996" y="6.488"/><use xlink:href="#1" y="2.171"/><use xlink:href="#3" y="4.342"/><text y="8.183" class="i">--apiKey</text><text x="9.018" y="8.183" class="j">&apos;d27f134FAKE8376f&apos;</text></svg><svg x="3744"><use xlink:href="#a"/><use xlink:href="#b" x="28.996" y="6.488"/><use xlink:href="#1" y="2.171"/><use xlink:href="#3" y="4.342"/><use xlink:href="#9" y="6.513"/></svg><svg x="3822"><use xlink:href="#a"/><use xlink:href="#b" x=".996" y="8.659"/><use xlink:href="#1" y="2.171"/><use xlink:href="#3" y="4.342"/><use xlink:href="#9" y="6.513"/><use xlink:href="#4" y="8.684"/></svg><svg x="3900"><use xlink:href="#a"/><use xlink:href="#b" x="1.996" y="8.659"/><use xlink:href="#1" y="2.171"/><use xlink:href="#3" y="4.342"/><use xlink:href="#9" y="6.513"/><use xlink:href="#5" y="8.684"/></svg><svg x="3978"><use xlink:href="#a"/><use xlink:href="#b" x="2.996" y="8.659"/><use xlink:href="#1" y="2.171"/><use xlink:href="#3" y="4.342"/><use xlink:href="#9" y="6.513"/><use xlink:href="#6" y="8.684"/></svg><svg x="4056"><use xlink:href="#a"/><use xlink:href="#b" x="3.996" y="8.659"/><use xlink:href="#1" y="2.171"/><use xlink:href="#3" y="4.342"/><use xlink:href="#9" y="6.513"/><use xlink:href="#7" y="8.684"/></svg><svg x="4134"><use xlink:href="#a"/><use xlink:href="#b" x="4.996" y="8.659"/><use xlink:href="#1" y="2.171"/><use xlink:href="#3" y="4.342"/><use xlink:href="#9" y="6.513"/><use xlink:href="#8" y="8.684"/></svg><svg x="4212"><use xlink:href="#a"/><use xlink:href="#b" x="5.996" y="8.659"/><use xlink:href="#1" y="2.171"/><use xlink:href="#3" y="4.342"/><use xlink:href="#9" y="6.513"/><text y="10.354" class="i">--apiE</text></svg><svg x="4290"><use xlink:href="#a"/><use xlink:href="#b" x="6.996" y="8.659"/><use xlink:href="#1" y="2.171"/><use xlink:href="#3" y="4.342"/><use xlink:href="#9" y="6.513"/><text y="10.354" class="i">--apiEx</text></svg><svg x="4368"><use xlink:href="#a"/><use xlink:href="#b" x="7.996" y="8.659"/><use xlink:href="#1" y="2.171"/><use xlink:href="#3" y="4.342"/><use xlink:href="#9" y="6.513"/><text y="10.354" class="i">--apiExc</text></svg><svg x="4446"><use xlink:href="#a"/><use xlink:href="#b" x="8.996" y="8.659"/><use xlink:href="#1" y="2.171"/><use xlink:href="#3" y="4.342"/><use xlink:href="#9" y="6.513"/><text y="10.354" class="i">--apiExch</text></svg><svg x="4524"><use xlink:href="#a"/><use xlink:href="#b" x="9.996" y="8.659"/><use xlink:href="#1" y="2.171"/><use xlink:href="#3" y="4.342"/><use xlink:href="#9" y="6.513"/><text y="10.354" class="i">--apiExcha</text></svg><svg x="4602"><use xlink:href="#a"/><use xlink:href="#b" x="10.996" y="8.659"/><use xlink:href="#1" y="2.171"/><use xlink:href="#3" y="4.342"/><use xlink:href="#9" y="6.513"/><text y="10.354" class="i">--apiExchan</text></svg><svg x="4680"><use xlink:href="#a"/><use xlink:href="#b" x="11.996" y="8.659"/><use xlink:href="#1" y="2.171"/><use xlink:href="#3" y="4.342"/><use xlink:href="#9" y="6.513"/><text y="10.354" class="i">--apiExchang</text></svg><svg x="4758"><use xlink:href="#a"/><use xlink:href="#b" x="12.996" y="8.659"/><use xlink:href="#1" y="2.171"/><use xlink:href="#3" y="4.342"/><use xlink:href="#9" y="6.513"/><text y="10.354" class="i">--apiExchange</text></svg><svg x="4836"><use xlink:href="#a"/><use xlink:href="#b" x="14.996" y="8.659"/><use xlink:href="#1" y="2.171"/><use xlink:href="#3" y="4.342"/><use xlink:href="#9" y="6.513"/><text y="10.354" class="i">--apiExchange</text><text x="14.028" y="10.354" class="j">&apos;</text></svg><svg x="4914"><use xlink:href="#a"/><use xlink:href="#b" x="15.996" y="8.659"/><use xlink:href="#1" y="2.171"/><use xlink:href="#3" y="4.342"/><use xlink:href="#9" y="6.513"/><text y="10.354" class="i">--apiExchange</text><text x="14.028" y="10.354" class="j">&apos;8</text></svg><svg x="4992"><use xlink:href="#a"/><use xlink:href="#b" x="16.996" y="8.659"/><use xlink:href="#1" y="2.171"/><use xlink:href="#3" y="4.342"/><use xlink:href="#9" y="6.513"/><text y="10.354" class="i">--apiExchange</text><text x="14.028" y="10.354" class="j">&apos;83</text></svg><svg x="5070"><use xlink:href="#a"/><use xlink:href="#b" x="17.996" y="8.659"/><use xlink:href="#1" y="2.171"/><use xlink:href="#3" y="4.342"/><use xlink:href="#9" y="6.513"/><text y="10.354" class="i">--apiExchange</text><text x="14.028" y="10.354" class="j">&apos;83c</text></svg><svg x="5148"><use xlink:href="#a"/><use xlink:href="#b" x="18.996" y="8.659"/><use xlink:href="#1" y="2.171"/><use xlink:href="#3" y="4.342"/><use xlink:href="#9" y="6.513"/><text y="10.354" class="i">--apiExchange</text><text x="14.028" y="10.354" class="j">&apos;83cc</text></svg><svg x="5226"><use xlink:href="#a"/><use xlink:href="#b" x="19.996" y="8.659"/><use xlink:href="#1" y="2.171"/><use xlink:href="#3" y="4.342"/><use xlink:href="#9" y="6.513"/><text y="10.354" class="i">--apiExchange</text><text x="14.028" y="10.354" class="j">&apos;83cc5</text></svg><svg x="5304"><use xlink:href="#a"/><use xlink:href="#b" x="20.996" y="8.659"/><use xlink:href="#1" y="2.171"/><use xlink:href="#3" y="4.342"/><use xlink:href="#9" y="6.513"/><text y="10.354" class="i">--apiExchange</text><text x="14.028" y="10.354" class="j">&apos;83cc5f</text></svg><svg x="5382"><use xlink:href="#a"/><use xlink:href="#b" x="21.996" y="8.659"/><use xlink:href="#1" y="2.171"/><use xlink:href="#3" y="4.342"/><use xlink:href="#9" y="6.513"/><text y="10.354" class="i">--apiExchange</text><text x="14.028" y="10.354" class="j">&apos;83cc5fb</text></svg><svg x="5460"><use xlink:href="#a"/><use xlink:href="#b" x="22.996" y="8.659"/><use xlink:href="#1" y="2.171"/><use xlink:href="#3" y="4.342"/><use xlink:href="#9" y="6.513"/><text y="10.354" class="i">--apiExchange</text><text x="14.028" y="10.354" class="j">&apos;83cc5fb8</text></svg><svg x="5538"><use xlink:href="#a"/><use xlink:href="#b" x="23.996" y="8.659"/><use xlink:href="#1" y="2.171"/><use xlink:href="#3" y="4.342"/><use xlink:href="#9" y="6.513"/><text y="10.354" class="i">--apiExchange</text><text x="14.028" y="10.354" class="j">&apos;83cc5fb8F</text></svg><svg x="5616"><use xlink:href="#a"/><use xlink:href="#b" x="24.996" y="8.659"/><use xlink:href="#1" y="2.171"/><use xlink:href="#3" y="4.342"/><use xlink:href="#9" y="6.513"/><text y="10.354" class="i">--apiExchange</text><text x="14.028" y="10.354" class="j">&apos;83cc5fb8FA</text></svg><svg x="5694"><use xlink:href="#a"/><use xlink:href="#b" x="25.996" y="8.659"/><use xlink:href="#1" y="2.171"/><use xlink:href="#3" y="4.342"/><use xlink:href="#9" y="6.513"/><text y="10.354" class="i">--apiExchange</text><text x="14.028" y="10.354" class="j">&apos;83cc5fb8FAK</text></svg><svg x="5772"><use xlink:href="#a"/><use xlink:href="#b" x="26.996" y="8.659"/><use xlink:href="#1" y="2.171"/><use xlink:href="#3" y="4.342"/><use xlink:href="#9" y="6.513"/><text y="10.354" class="i">--apiExchange</text><text x="14.028" y="10.354" class="j">&apos;83cc5fb8FAKE</text></svg><svg x="5850"><use xlink:href="#a"/><use xlink:href="#b" x="27.996" y="8.659"/><use xlink:href="#1" y="2.171"/><use xlink:href="#3" y="4.342"/><use xlink:href="#9" y="6.513"/><text y="10.354" class="i">--apiExchange</text><text x="14.028" y="10.354" class="j">&apos;83cc5fb8FAKEd</text></svg><svg x="5928"><use xlink:href="#a"/><use xlink:href="#b" x="28.996" y="8.659"/><use xlink:href="#1" y="2.171"/><use xlink:href="#3" y="4.342"/><use xlink:href="#9" y="6.513"/><text y="10.354" class="i">--apiExchange</text><text x="14.028" y="10.354" class="j">&apos;83cc5fb8FAKEdd</text></svg><svg x="6006"><use xlink:href="#a"/><use xlink:href="#b" x="29.996" y="8.659"/><use xlink:href="#1" y="2.171"/><use xlink:href="#3" y="4.342"/><use xlink:href="#9" y="6.513"/><text y="10.354" class="i">--apiExchange</text><text x="14.028" y="10.354" class="j">&apos;83cc5fb8FAKEdd9</text></svg><svg x="6084"><use xlink:href="#a"/><use xlink:href="#b" x="30.996" y="8.659"/><use xlink:href="#1" y="2.171"/><use xlink:href="#3" y="4.342"/><use xlink:href="#9" y="6.513"/><text y="10.354" class="i">--apiExchange</text><text x="14.028" y="10.354" class="j">&apos;83cc5fb8FAKEdd9b</text></svg><svg x="6162"><use xlink:href="#a"/><use xlink:href="#b" x="31.996" y="8.659"/><use xlink:href="#1" y="2.171"/><use xlink:href="#3" y="4.342"/><use xlink:href="#9" y="6.513"/><text y="10.354" class="i">--apiExchange</text><text x="14.028" y="10.354" class="j">&apos;83cc5fb8FAKEdd9b&apos;</text></svg><svg x="6240"><use xlink:href="#a"/><use xlink:href="#b" x="33.996" y="8.659"/><use xlink:href="#1" y="2.171"/><use xlink:href="#3" y="4.342"/><use xlink:href="#9" y="6.513"/><use xlink:href="#10" y="8.684"/></svg><svg x="6318"><use xlink:href="#a"/><use xlink:href="#b" x=".996" y="10.83"/><use xlink:href="#1" y="2.171"/><use xlink:href="#3" y="4.342"/><use xlink:href="#9" y="6.513"/><use xlink:href="#10" y="8.684"/><use xlink:href="#4" y="10.855"/></svg><svg x="6396"><use xlink:href="#a"/><use xlink:href="#b" x="1.996" y="10.83"/><use xlink:href="#1" y="2.171"/><use xlink:href="#3" y="4.342"/><use xlink:href="#9" y="6.513"/><use xlink:href="#10" y="8.684"/><use xlink:href="#5" y="10.855"/></svg><svg x="6474"><use xlink:href="#a"/><use xlink:href="#b" x="2.996" y="10.83"/><use xlink:href="#1" y="2.171"/><use xlink:href="#3" y="4.342"/><use xlink:href="#9" y="6.513"/><use xlink:href="#10" y="8.684"/><text y="12.525" class="i">--s</text></svg><svg x="6552"><use xlink:href="#a"/><use xlink:href="#b" x="3.996" y="10.83"/><use xlink:href="#1" y="2.171"/><use xlink:href="#3" y="4.342"/><use xlink:href="#9" y="6.513"/><use xlink:href="#10" y="8.684"/><text y="12.525" class="i">--so</text></svg><svg x="6630"><use xlink:href="#a"/><use xlink:href="#b" x="4.996" y="10.83"/><use xlink:href="#1" y="2.171"/><use xlink:href="#3" y="4.342"/><use xlink:href="#9" y="6.513"/><use xlink:href="#10" y="8.684"/><text y="12.525" class="i">--sou</text></svg><svg x="6708"><use xlink:href="#a"/><use xlink:href="#b" x="5.996" y="10.83"/><use xlink:href="#1" y="2.171"/><use xlink:href="#3" y="4.342"/><use xlink:href="#9" y="6.513"/><use xlink:href="#10" y="8.684"/><text y="12.525" class="i">--sour</text></svg><svg x="6786"><use xlink:href="#a"/><use xlink:href="#b" x="6.996" y="10.83"/><use xlink:href="#1" y="2.171"/><use xlink:href="#3" y="4.342"/><use xlink:href="#9" y="6.513"/><use xlink:href="#10" y="8.684"/><text y="12.525" class="i">--sourc</text></svg><svg x="6864"><use xlink:href="#a"/><use xlink:href="#b" x="7.996" y="10.83"/><use xlink:href="#1" y="2.171"/><use xlink:href="#3" y="4.342"/><use xlink:href="#9" y="6.513"/><use xlink:href="#10" y="8.684"/><text y="12.525" class="i">--source</text></svg><svg x="6942"><use xlink:href="#a"/><use xlink:href="#b" x="8.996" y="10.83"/><use xlink:href="#1" y="2.171"/><use xlink:href="#3" y="4.342"/><use xlink:href="#9" y="6.513"/><use xlink:href="#10" y="8.684"/><text y="12.525" class="i">--sourceP</text></svg><svg x="7020"><use xlink:href="#a"/><use xlink:href="#b" x="9.996" y="10.83"/><use xlink:href="#1" y="2.171"/><use xlink:href="#3" y="4.342"/><use xlink:href="#9" y="6.513"/><use xlink:href="#10" y="8.684"/><text y="12.525" class="i">--sourcePa</text></svg><svg x="7098"><use xlink:href="#a"/><use xlink:href="#b" x="10.996" y="10.83"/><use xlink:href="#1" y="2.171"/><use xlink:href="#3" y="4.342"/><use xlink:href="#9" y="6.513"/><use xlink:href="#10" y="8.684"/><text y="12.525" class="i">--sourcePat</text></svg><svg x="7176"><use xlink:href="#a"/><use xlink:href="#b" x="11.996" y="10.83"/><use xlink:href="#1" y="2.171"/><use xlink:href="#3" y="4.342"/><use xlink:href="#9" y="6.513"/><use xlink:href="#10" y="8.684"/><text y="12.525" class="i">--sourcePath</text></svg><svg x="7254"><use xlink:href="#a"/><use xlink:href="#b" x="13.996" y="10.83"/><use xlink:href="#1" y="2.171"/><use xlink:href="#3" y="4.342"/><use xlink:href="#9" y="6.513"/><use xlink:href="#10" y="8.684"/><text y="12.525" class="i">--sourcePath</text><text x="13.026" y="12.525" class="j">&apos;</text></svg><svg x="7332"><use xlink:href="#a"/><use xlink:href="#b" x="14.996" y="10.83"/><use xlink:href="#1" y="2.171"/><use xlink:href="#3" y="4.342"/><use xlink:href="#9" y="6.513"/><use xlink:href="#10" y="8.684"/><text y="12.525" class="i">--sourcePath</text><text x="13.026" y="12.525" class="j">&apos;.</text></svg><svg x="7410"><use xlink:href="#a"/><use xlink:href="#b" x="15.996" y="10.83"/><use xlink:href="#1" y="2.171"/><use xlink:href="#3" y="4.342"/><use xlink:href="#9" y="6.513"/><use xlink:href="#10" y="8.684"/><text y="12.525" class="i">--sourcePath</text><text x="13.026" y="12.525" class="j">&apos;./</text></svg><svg x="7488"><use xlink:href="#a"/><use xlink:href="#b" x="16.996" y="10.83"/><use xlink:href="#1" y="2.171"/><use xlink:href="#3" y="4.342"/><use xlink:href="#9" y="6.513"/><use xlink:href="#10" y="8.684"/><text y="12.525" class="i">--sourcePath</text><text x="13.026" y="12.525" class="j">&apos;./s</text></svg><svg x="7566"><use xlink:href="#a"/><use xlink:href="#b" x="17.996" y="10.83"/><use xlink:href="#1" y="2.171"/><use xlink:href="#3" y="4.342"/><use xlink:href="#9" y="6.513"/><use xlink:href="#10" y="8.684"/><text y="12.525" class="i">--sourcePath</text><text x="13.026" y="12.525" class="j">&apos;./st</text></svg><svg x="7644"><use xlink:href="#a"/><use xlink:href="#b" x="18.996" y="10.83"/><use xlink:href="#1" y="2.171"/><use xlink:href="#3" y="4.342"/><use xlink:href="#9" y="6.513"/><use xlink:href="#10" y="8.684"/><text y="12.525" class="i">--sourcePath</text><text x="13.026" y="12.525" class="j">&apos;./sto</text></svg><svg x="7722"><use xlink:href="#a"/><use xlink:href="#b" x="19.996" y="10.83"/><use xlink:href="#1" y="2.171"/><use xlink:href="#3" y="4.342"/><use xlink:href="#9" y="6.513"/><use xlink:href="#10" y="8.684"/><text y="12.525" class="i">--sourcePath</text><text x="13.026" y="12.525" class="j">&apos;./stor</text></svg><svg x="7800"><use xlink:href="#a"/><use xlink:href="#b" x="20.996" y="10.83"/><use xlink:href="#1" y="2.171"/><use xlink:href="#3" y="4.342"/><use xlink:href="#9" y="6.513"/><use xlink:href="#10" y="8.684"/><text y="12.525" class="i">--sourcePath</text><text x="13.026" y="12.525" class="j">&apos;./store</text></svg><svg x="7878"><use xlink:href="#a"/><use xlink:href="#b" x="21.996" y="10.83"/><use xlink:href="#1" y="2.171"/><use xlink:href="#3" y="4.342"/><use xlink:href="#9" y="6.513"/><use xlink:href="#10" y="8.684"/><text y="12.525" class="i">--sourcePath</text><text x="13.026" y="12.525" class="j">&apos;./stored</text></svg><svg x="7956"><use xlink:href="#a"/><use xlink:href="#b" x="22.996" y="10.83"/><use xlink:href="#1" y="2.171"/><use xlink:href="#3" y="4.342"/><use xlink:href="#9" y="6.513"/><use xlink:href="#10" y="8.684"/><text y="12.525" class="i">--sourcePath</text><text x="13.026" y="12.525" class="j">&apos;./storede</text></svg><svg x="8034"><use xlink:href="#a"/><use xlink:href="#b" x="23.996" y="10.83"/><use xlink:href="#1" y="2.171"/><use xlink:href="#3" y="4.342"/><use xlink:href="#9" y="6.513"/><use xlink:href="#10" y="8.684"/><text y="12.525" class="i">--sourcePath</text><text x="13.026" y="12.525" class="j">&apos;./storeden</text></svg><svg x="8112"><use xlink:href="#a"/><use xlink:href="#b" x="24.996" y="10.83"/><use xlink:href="#1" y="2.171"/><use xlink:href="#3" y="4.342"/><use xlink:href="#9" y="6.513"/><use xlink:href="#10" y="8.684"/><text y="12.525" class="i">--sourcePath</text><text x="13.026" y="12.525" class="j">&apos;./storeden/</text></svg><svg x="8190"><use xlink:href="#a"/><use xlink:href="#b" x="25.996" y="10.83"/><use xlink:href="#1" y="2.171"/><use xlink:href="#3" y="4.342"/><use xlink:href="#9" y="6.513"/><use xlink:href="#10" y="8.684"/><text y="12.525" class="i">--sourcePath</text><text x="13.026" y="12.525" class="j">&apos;./storeden/d</text></svg><svg x="8268"><use xlink:href="#a"/><use xlink:href="#b" x="26.996" y="10.83"/><use xlink:href="#1" y="2.171"/><use xlink:href="#3" y="4.342"/><use xlink:href="#9" y="6.513"/><use xlink:href="#10" y="8.684"/><text y="12.525" class="i">--sourcePath</text><text x="13.026" y="12.525" class="j">&apos;./storeden/di</text></svg><svg x="8346"><use xlink:href="#a"/><use xlink:href="#b" x="27.996" y="10.83"/><use xlink:href="#1" y="2.171"/><use xlink:href="#3" y="4.342"/><use xlink:href="#9" y="6.513"/><use xlink:href="#10" y="8.684"/><text y="12.525" class="i">--sourcePath</text><text x="13.026" y="12.525" class="j">&apos;./storeden/dis</text></svg><svg x="8424"><use xlink:href="#a"/><use xlink:href="#b" x="28.996" y="10.83"/><use xlink:href="#1" y="2.171"/><use xlink:href="#3" y="4.342"/><use xlink:href="#9" y="6.513"/><use xlink:href="#10" y="8.684"/><text y="12.525" class="i">--sourcePath</text><text x="13.026" y="12.525" class="j">&apos;./storeden/dist</text></svg><svg x="8502"><use xlink:href="#a"/><use xlink:href="#b" x="29.996" y="10.83"/><use xlink:href="#1" y="2.171"/><use xlink:href="#3" y="4.342"/><use xlink:href="#9" y="6.513"/><use xlink:href="#10" y="8.684"/><use xlink:href="#11" y="10.855"/></svg><svg x="8580"><use xlink:href="#a"/><use xlink:href="#b" x="29.996" y="10.83"/><use xlink:href="#1" y="2.171"/><text y="6.012" class="g">🍕</text><path class="s" d="M3.006 4.342h17v2.171h-17z"/><text x="3.006" y="6.012" class="t">storeden-deploy \</text><path class="s" d="M0 6.513h29v2.171H0z"/><text y="8.183" class="t">--apiKey &apos;d27f134FAKE8376f&apos; \</text><path class="s" d="M0 8.684h34v2.171H0z"/><text y="10.354" class="t">--apiExchange &apos;83cc5fb8FAKEdd9b&apos; \</text><path class="s" d="M0 10.855h30v2.171H0z"/><text y="12.525" class="t">--sourcePath &apos;./storeden/dist&apos;</text></svg><svg x="8658"><use xlink:href="#a"/><use xlink:href="#b" x="27.996" y="10.83"/><use xlink:href="#1" y="2.171"/><use xlink:href="#3" y="4.342"/><use xlink:href="#9" y="6.513"/><use xlink:href="#10" y="8.684"/><text y="12.525" class="i">--sourcePath</text><text x="13.026" y="12.525" class="j">&apos;./storeden/dis</text><path class="s" d="M28.056 10.855h2v2.171h-2z"/><text x="28.056" y="12.525" class="t">t&apos;</text></svg><svg x="8736"><use xlink:href="#a"/><use xlink:href="#b" x="29.996" y="10.83"/><use xlink:href="#1" y="2.171"/><use xlink:href="#3" y="4.342"/><use xlink:href="#9" y="6.513"/><use xlink:href="#10" y="8.684"/><use xlink:href="#11" y="10.855"/></svg><svg x="8814"><use xlink:href="#a"/><use xlink:href="#b" x="29.996" y="10.83"/><use xlink:href="#1" y="2.171"/><use xlink:href="#3" y="4.342"/><use xlink:href="#9" y="6.513"/><use xlink:href="#10" y="8.684"/><use xlink:href="#11" y="10.855"/></svg><svg x="8892"><use xlink:href="#a"/><use xlink:href="#b" x="-.004" y="13.001"/><use xlink:href="#1" y="2.171"/><use xlink:href="#3" y="4.342"/><use xlink:href="#9" y="6.513"/><use xlink:href="#10" y="8.684"/><use xlink:href="#11" y="10.855"/></svg><svg x="8970"><use xlink:href="#a"/><use xlink:href="#b" x="-.004" y="13.001"/><use xlink:href="#1" y="2.171"/><use xlink:href="#3" y="4.342"/><use xlink:href="#9" y="6.513"/><use xlink:href="#10" y="8.684"/><use xlink:href="#11" y="10.855"/></svg><svg x="9048"><use xlink:href="#a"/><use xlink:href="#1" y="2.171"/><use xlink:href="#3" y="4.342"/><use xlink:href="#9" y="6.513"/><use xlink:href="#10" y="8.684"/><use xlink:href="#11" y="10.855"/></svg><svg x="9126"><use xlink:href="#a"/><use xlink:href="#1" y="2.171"/><use xlink:href="#3" y="4.342"/><use xlink:href="#9" y="6.513"/><use xlink:href="#10" y="8.684"/><use xlink:href="#11" y="10.855"/><text y="14.696" class="l">⠋</text><text x="2.004" y="14.696" class="i">Creating</text><text x="11.022" y="14.696" class="i">zip</text><text x="15.03" y="14.696" class="i">archive</text><text x="23.046" y="14.696" class="i">of</text><text x="26.052" y="14.696" class="k">/Users/cesconix/code/storeden/dist</text></svg><svg x="9204"><use xlink:href="#a"/><use xlink:href="#1" y="2.171"/><use xlink:href="#3" y="4.342"/><use xlink:href="#9" y="6.513"/><use xlink:href="#10" y="8.684"/><use xlink:href="#11" y="10.855"/></svg><svg x="9282"><use xlink:href="#a"/><use xlink:href="#1" y="2.171"/><use xlink:href="#3" y="4.342"/><use xlink:href="#9" y="6.513"/><use xlink:href="#10" y="8.684"/><use xlink:href="#11" y="10.855"/></svg><svg x="9360"><use xlink:href="#a"/><use xlink:href="#1" y="2.171"/><use xlink:href="#3" y="4.342"/><use xlink:href="#9" y="6.513"/><use xlink:href="#10" y="8.684"/><use xlink:href="#11" y="10.855"/><text y="14.696" class="l">⠙</text><text x="2.004" y="14.696" class="i">Creating</text><text x="11.022" y="14.696" class="i">zip</text><text x="15.03" y="14.696" class="i">archive</text><text x="23.046" y="14.696" class="i">of</text><text x="26.052" y="14.696" class="k">/Users/cesconix/code/storeden/dist</text></svg><svg x="9438"><use xlink:href="#a"/><use xlink:href="#1" y="2.171"/><use xlink:href="#3" y="4.342"/><use xlink:href="#9" y="6.513"/><use xlink:href="#10" y="8.684"/><use xlink:href="#11" y="10.855"/></svg><svg x="9516"><use xlink:href="#a"/><use xlink:href="#b" x="-.004" y="13.001"/><use xlink:href="#1" y="2.171"/><use xlink:href="#3" y="4.342"/><use xlink:href="#9" y="6.513"/><use xlink:href="#10" y="8.684"/><use xlink:href="#11" y="10.855"/></svg><svg x="9594"><use xlink:href="#a"/><use xlink:href="#b" x="-.004" y="15.172"/><use xlink:href="#1" y="2.171"/><use xlink:href="#3" y="4.342"/><use xlink:href="#9" y="6.513"/><use xlink:href="#10" y="8.684"/><use xlink:href="#11" y="10.855"/><use xlink:href="#12" y="13.026"/></svg><svg x="9672"><use xlink:href="#a"/><use xlink:href="#1" y="2.171"/><use xlink:href="#3" y="4.342"/><use xlink:href="#9" y="6.513"/><use xlink:href="#10" y="8.684"/><use xlink:href="#11" y="10.855"/><use xlink:href="#12" y="13.026"/></svg><svg x="9750"><use xlink:href="#a"/><use xlink:href="#1" y="2.171"/><use xlink:href="#3" y="4.342"/><use xlink:href="#9" y="6.513"/><use xlink:href="#10" y="8.684"/><use xlink:href="#11" y="10.855"/><use xlink:href="#12" y="13.026"/><text y="16.867" class="l">⠋</text><text x="2.004" y="16.867" class="i">Uploading</text><text x="12.024" y="16.867" class="k">/var/folders/ff/yv7pnmkx4j7d080hry24g60r0000gn/T/storeden.zip</text></svg><svg x="9828"><use xlink:href="#a"/><use xlink:href="#1" y="2.171"/><use xlink:href="#3" y="4.342"/><use xlink:href="#9" y="6.513"/><use xlink:href="#10" y="8.684"/><use xlink:href="#11" y="10.855"/><use xlink:href="#12" y="13.026"/></svg><svg x="9906"><use xlink:href="#a"/><use xlink:href="#1" y="2.171"/><use xlink:href="#3" y="4.342"/><use xlink:href="#9" y="6.513"/><use xlink:href="#10" y="8.684"/><use xlink:href="#11" y="10.855"/><use xlink:href="#12" y="13.026"/><text y="16.867" class="l">⠙</text><text x="2.004" y="16.867" class="i">Uploading</text><text x="12.024" y="16.867" class="k">/var/folders/ff/yv7pnmkx4j7d080hry24g60r0000gn/T/storeden.zip</text></svg><svg x="9984"><use xlink:href="#a"/><use xlink:href="#1" y="2.171"/><use xlink:href="#3" y="4.342"/><use xlink:href="#9" y="6.513"/><use xlink:href="#10" y="8.684"/><use xlink:href="#11" y="10.855"/><use xlink:href="#12" y="13.026"/></svg><svg x="10062"><use xlink:href="#a"/><use xlink:href="#1" y="2.171"/><use xlink:href="#3" y="4.342"/><use xlink:href="#9" y="6.513"/><use xlink:href="#10" y="8.684"/><use xlink:href="#11" y="10.855"/><use xlink:href="#12" y="13.026"/><text y="16.867" class="l">⠹</text><text x="2.004" y="16.867" class="i">Uploading</text><text x="12.024" y="16.867" class="k">/var/folders/ff/yv7pnmkx4j7d080hry24g60r0000gn/T/storeden.zip</text></svg><svg x="10140"><use xlink:href="#a"/><use xlink:href="#1" y="2.171"/><use xlink:href="#3" y="4.342"/><use xlink:href="#9" y="6.513"/><use xlink:href="#10" y="8.684"/><use xlink:href="#11" y="10.855"/><use xlink:href="#12" y="13.026"/></svg><svg x="10218"><use xlink:href="#a"/><use xlink:href="#1" y="2.171"/><use xlink:href="#3" y="4.342"/><use xlink:href="#9" y="6.513"/><use xlink:href="#10" y="8.684"/><use xlink:href="#11" y="10.855"/><use xlink:href="#12" y="13.026"/><text y="16.867" class="l">⠸</text><text x="2.004" y="16.867" class="i">Uploading</text><text x="12.024" y="16.867" class="k">/var/folders/ff/yv7pnmkx4j7d080hry24g60r0000gn/T/storeden.zip</text></svg><svg x="10296"><use xlink:href="#a"/><use xlink:href="#1" y="2.171"/><use xlink:href="#3" y="4.342"/><use xlink:href="#9" y="6.513"/><use xlink:href="#10" y="8.684"/><use xlink:href="#11" y="10.855"/><use xlink:href="#12" y="13.026"/></svg><svg x="10374"><use xlink:href="#a"/><use xlink:href="#1" y="2.171"/><use xlink:href="#3" y="4.342"/><use xlink:href="#9" y="6.513"/><use xlink:href="#10" y="8.684"/><use xlink:href="#11" y="10.855"/><use xlink:href="#12" y="13.026"/><text y="16.867" class="l">⠼</text><text x="2.004" y="16.867" class="i">Uploading</text><text x="12.024" y="16.867" class="k">/var/folders/ff/yv7pnmkx4j7d080hry24g60r0000gn/T/storeden.zip</text></svg><svg x="10452"><use xlink:href="#a"/><use xlink:href="#1" y="2.171"/><use xlink:href="#3" y="4.342"/><use xlink:href="#9" y="6.513"/><use xlink:href="#10" y="8.684"/><use xlink:href="#11" y="10.855"/><use xlink:href="#12" y="13.026"/></svg><svg x="10530"><use xlink:href="#a"/><use xlink:href="#1" y="2.171"/><use xlink:href="#3" y="4.342"/><use xlink:href="#9" y="6.513"/><use xlink:href="#10" y="8.684"/><use xlink:href="#11" y="10.855"/><use xlink:href="#12" y="13.026"/><text y="16.867" class="l">⠴</text><text x="2.004" y="16.867" class="i">Uploading</text><text x="12.024" y="16.867" class="k">/var/folders/ff/yv7pnmkx4j7d080hry24g60r0000gn/T/storeden.zip</text></svg><svg x="10608"><use xlink:href="#a"/><use xlink:href="#1" y="2.171"/><use xlink:href="#3" y="4.342"/><use xlink:href="#9" y="6.513"/><use xlink:href="#10" y="8.684"/><use xlink:href="#11" y="10.855"/><use xlink:href="#12" y="13.026"/></svg><svg x="10686"><use xlink:href="#a"/><use xlink:href="#1" y="2.171"/><use xlink:href="#3" y="4.342"/><use xlink:href="#9" y="6.513"/><use xlink:href="#10" y="8.684"/><use xlink:href="#11" y="10.855"/><use xlink:href="#12" y="13.026"/><text y="16.867" class="l">⠦</text><text x="2.004" y="16.867" class="i">Uploading</text><text x="12.024" y="16.867" class="k">/var/folders/ff/yv7pnmkx4j7d080hry24g60r0000gn/T/storeden.zip</text></svg><svg x="10764"><use xlink:href="#a"/><use xlink:href="#1" y="2.171"/><use xlink:href="#3" y="4.342"/><use xlink:href="#9" y="6.513"/><use xlink:href="#10" y="8.684"/><use xlink:href="#11" y="10.855"/><use xlink:href="#12" y="13.026"/></svg><svg x="10842"><use xlink:href="#a"/><use xlink:href="#1" y="2.171"/><use xlink:href="#3" y="4.342"/><use xlink:href="#9" y="6.513"/><use xlink:href="#10" y="8.684"/><use xlink:href="#11" y="10.855"/><use xlink:href="#12" y="13.026"/><text y="16.867" class="l">⠧</text><text x="2.004" y="16.867" class="i">Uploading</text><text x="12.024" y="16.867" class="k">/var/folders/ff/yv7pnmkx4j7d080hry24g60r0000gn/T/storeden.zip</text></svg><svg x="10920"><use xlink:href="#a"/><use xlink:href="#1" y="2.171"/><use xlink:href="#3" y="4.342"/><use xlink:href="#9" y="6.513"/><use xlink:href="#10" y="8.684"/><use xlink:href="#11" y="10.855"/><use xlink:href="#12" y="13.026"/></svg><svg x="10998"><use xlink:href="#a"/><use xlink:href="#b" x="-.004" y="15.172"/><use xlink:href="#1" y="2.171"/><use xlink:href="#3" y="4.342"/><use xlink:href="#9" y="6.513"/><use xlink:href="#10" y="8.684"/><use xlink:href="#11" y="10.855"/><use xlink:href="#12" y="13.026"/></svg><svg x="11076"><use xlink:href="#a"/><use xlink:href="#b" x="-.004" y="17.343"/><use xlink:href="#1" y="2.171"/><use xlink:href="#3" y="4.342"/><use xlink:href="#9" y="6.513"/><use xlink:href="#10" y="8.684"/><use xlink:href="#11" y="10.855"/><use xlink:href="#12" y="13.026"/><use xlink:href="#13" y="15.197"/></svg><svg x="11154"><use xlink:href="#a"/><use xlink:href="#b" x="-.004" y="19.514"/><use xlink:href="#1" y="2.171"/><use xlink:href="#3" y="4.342"/><use xlink:href="#9" y="6.513"/><use xlink:href="#10" y="8.684"/><use xlink:href="#11" y="10.855"/><use xlink:href="#12" y="13.026"/><use xlink:href="#13" y="15.197"/><use xlink:href="#14" y="17.368"/></svg><svg x="11232"><use xlink:href="#a"/><use xlink:href="#b" x="-.004" y="19.514"/><use xlink:href="#1" y="2.171"/><use xlink:href="#3" y="4.342"/><use xlink:href="#9" y="6.513"/><use xlink:href="#10" y="8.684"/><use xlink:href="#11" y="10.855"/><use xlink:href="#12" y="13.026"/><use xlink:href="#13" y="15.197"/><use xlink:href="#14" y="17.368"/></svg><svg x="11310"><use xlink:href="#a"/><use xlink:href="#b" x="-.004" y="19.514"/><use xlink:href="#1" y="2.171"/><use xlink:href="#3" y="4.342"/><use xlink:href="#9" y="6.513"/><use xlink:href="#10" y="8.684"/><use xlink:href="#11" y="10.855"/><use xlink:href="#12" y="13.026"/><use xlink:href="#13" y="15.197"/><use xlink:href="#14" y="17.368"/></svg><svg x="11388"><use xlink:href="#a"/><use xlink:href="#b" x="-.004" y="19.514"/><use xlink:href="#1" y="2.171"/><use xlink:href="#3" y="4.342"/><use xlink:href="#9" y="6.513"/><use xlink:href="#10" y="8.684"/><use xlink:href="#11" y="10.855"/><use xlink:href="#12" y="13.026"/><use xlink:href="#13" y="15.197"/><use xlink:href="#14" y="17.368"/></svg><svg x="11466"><use xlink:href="#a"/><use xlink:href="#b" x="2.996" y="23.856"/><use xlink:href="#1" y="2.171"/><use xlink:href="#3" y="4.342"/><use xlink:href="#9" y="6.513"/><use xlink:href="#10" y="8.684"/><use xlink:href="#11" y="10.855"/><use xlink:href="#12" y="13.026"/><use xlink:href="#13" y="15.197"/><use xlink:href="#14" y="17.368"/><use xlink:href="#1" y="21.71"/><use xlink:href="#2" y="23.881"/></svg><svg x="11544"><use xlink:href="#a"/><use xlink:href="#b" x="2.996" y="23.856"/><use xlink:href="#1" y="2.171"/><use xlink:href="#3" y="4.342"/><use xlink:href="#9" y="6.513"/><use xlink:href="#10" y="8.684"/><use xlink:href="#11" y="10.855"/><use xlink:href="#12" y="13.026"/><use xlink:href="#13" y="15.197"/><use xlink:href="#14" y="17.368"/><use xlink:href="#1" y="21.71"/><use xlink:href="#2" y="23.881"/></svg><svg x="11622"><use xlink:href="#a"/><use xlink:href="#b" x="2.996" y="23.856"/><use xlink:href="#1" y="2.171"/><use xlink:href="#3" y="4.342"/><use xlink:href="#9" y="6.513"/><use xlink:href="#10" y="8.684"/><use xlink:href="#11" y="10.855"/><use xlink:href="#12" y="13.026"/><use xlink:href="#13" y="15.197"/><use xlink:href="#14" y="17.368"/><use xlink:href="#1" y="21.71"/><use xlink:href="#2" y="23.881"/></svg><svg x="11700"><use xlink:href="#a"/><use xlink:href="#b" x="-.004" y="26.027"/><use xlink:href="#1" y="2.171"/><use xlink:href="#3" y="4.342"/><use xlink:href="#9" y="6.513"/><use xlink:href="#10" y="8.684"/><use xlink:href="#11" y="10.855"/><use xlink:href="#12" y="13.026"/><use xlink:href="#13" y="15.197"/><use xlink:href="#14" y="17.368"/><use xlink:href="#1" y="21.71"/><use xlink:href="#2" y="23.881"/></svg></svg></g></g></svg></svg>